<svg width="14" height="15" viewBox="0 0 14 15" fill="none" xmlns="http://www.w3.org/2000/svg">
<path fill-rule="evenodd" clip-rule="evenodd" d="M0.347672 8.44598C0.347672 6.85982 1.59696 5.56521 3.16516 5.49253L3.30434 5.48931H3.92634C4.20248 5.48931 4.42634 5.71317 4.42634 5.98931C4.42634 6.24244 4.23824 6.45164 3.99419 6.48475L3.92634 6.48931H3.30434C2.2624 6.48931 1.41051 7.30399 1.35099 8.33102L1.34767 8.44598L1.34767 11.696C1.34767 12.7373 2.16243 13.5891 3.18939 13.6487L3.30434 13.652H10.7243C11.7662 13.652 12.6182 12.8374 12.6777 11.8109L12.681 11.696V8.43931C12.681 7.40107 11.8693 6.55195 10.8462 6.49262L10.7317 6.48931H10.103C9.82686 6.48931 9.60301 6.26545 9.60301 5.98931C9.60301 5.73618 9.79111 5.52698 10.0352 5.49388L10.103 5.48931H10.7317C12.3125 5.48931 13.6031 6.73385 13.6776 8.29641L13.681 8.43931V11.696C13.681 13.2816 12.4316 14.5761 10.8635 14.6488L10.7243 14.652H3.30434C1.7183 14.652 0.42358 13.4028 0.35089 11.8351L0.347672 11.696L0.347672 8.44598ZM6.65393 1.1137C6.74489 1.01915 6.87271 0.960317 7.01428 0.960317C7.15778 0.960317 7.28715 1.02077 7.37834 1.11759L9.31247 3.05968C9.50733 3.25534 9.50668 3.57193 9.31102 3.76679C9.13314 3.94393 8.85533 3.9595 8.65989 3.81386L8.60391 3.76534L7.51428 2.67197L7.51428 9.48765C7.51428 9.76379 7.29042 9.98765 7.01428 9.98765C6.76115 9.98765 6.55195 9.79955 6.51884 9.5555L6.51428 9.48765L6.51428 2.67082L5.4252 3.76527C5.24808 3.94318 4.97034 3.95994 4.77428 3.81513L4.71809 3.76685C4.54019 3.58973 4.52343 3.31199 4.66823 3.11593L4.71652 3.05974L6.65393 1.1137Z" fill="white"/>
</svg>
